<?xml version="1.0" encoding="utf-8"?>
<!-- Generator: Adobe Illustrator 26.0.3, SVG Export Plug-In . SVG Version: 6.00 Build 0)  -->
<svg version="1.1" id="Layer_1" xmlns="http://www.w3.org/2000/svg" xmlns:xlink="http://www.w3.org/1999/xlink" x="0px" y="0px"
	 viewBox="0 0 792 397.74" style="enable-background:new 0 0 792 397.74;" xml:space="preserve">
<style type="text/css">
	.st0{fill:#F2F2F2;}
	.st1{fill:#6B6B6B;}
	.st2{fill:url(#SVGID_1_);}
	.st3{fill:url(#SVGID_00000053503574781459178020000012376657820248003753_);}
	.st4{fill:url(#SVGID_00000006702691560649817830000003892882074914728630_);}
	.st5{fill:#5F2A84;}
	.st6{fill:url(#SVGID_00000027583496162385365680000007292000889890857911_);}
	.st7{fill:url(#SVGID_00000160191875544545566630000007071748671030016660_);}
	.st8{fill:url(#SVGID_00000173853325705900859240000011574294930222957218_);}
	.st9{fill:url(#SVGID_00000094585622576741283520000001546354729568866216_);}
	.st10{fill:url(#SVGID_00000174596269554503191490000015891703816879219328_);}
	.st11{fill:url(#SVGID_00000060740946040999997330000006076492714646879926_);}
	.st12{fill:url(#SVGID_00000029019188733518097110000006682903961945305506_);}
	.st13{fill:url(#SVGID_00000160897067454720072110000007751158905976597140_);}
	.st14{fill:url(#SVGID_00000026136269393905933750000004734091530958012575_);}
	.st15{fill:url(#SVGID_00000021117670826088781650000013720220039324194990_);}
	.st16{fill:url(#SVGID_00000167361248865165510460000015737134356960761728_);}
	.st17{fill:url(#SVGID_00000093885972028711007520000000111155904388969128_);}
	.st18{fill:url(#SVGID_00000136402940577809712830000014466686508955975051_);}
	.st19{fill:url(#SVGID_00000037681112794174869230000008170576316820045234_);}
	.st20{fill:url(#SVGID_00000116950843135456189150000003429301242149379491_);}
	.st21{fill:#1B1C1C;}
	.st22{fill:url(#SVGID_00000139293145285028644880000003747312809289782173_);}
	.st23{fill:url(#SVGID_00000067218928682646319520000012330798940807408818_);}
	.st24{fill:url(#SVGID_00000178888414283775683290000012282927955523018665_);}
	.st25{fill:url(#SVGID_00000024711234348354148190000010704904414859878050_);}
	.st26{fill:url(#SVGID_00000169540632127862534700000004108200587089727383_);}
	.st27{fill:url(#SVGID_00000130645976217752684530000015965785752277155484_);}
	.st28{fill:#221F1F;}
	.st29{fill:#FFFFFF;}
	.st30{fill:url(#SVGID_00000029762765492515737060000003665220686070694296_);}
	.st31{fill:url(#SVGID_00000010294303678207630100000016200935879391179441_);}
	.st32{fill:url(#SVGID_00000075883826314202524380000003668862387059802286_);}
	.st33{fill:url(#SVGID_00000117678146726930166440000014117806978794933140_);}
	.st34{fill:url(#SVGID_00000146458429241695841580000016208119995907353780_);}
	.st35{fill:url(#SVGID_00000081645064810022371280000014331390341280587934_);}
	.st36{fill:url(#SVGID_00000128467287362779406100000007708676891822712491_);}
	.st37{fill:url(#SVGID_00000163053092107659792710000015628488040323955072_);}
	.st38{fill:url(#SVGID_00000114759095688079335260000003822398453546213771_);}
	.st39{fill:url(#SVGID_00000108993082113567481520000004569052266447071911_);}
	.st40{fill:url(#SVGID_00000082330642662115723310000014190083099077489841_);}
	.st41{fill:url(#SVGID_00000021832040322485218550000001451106071921336249_);}
	.st42{fill:url(#SVGID_00000122690678480958659630000013450662600163514779_);}
	.st43{fill:url(#SVGID_00000138537089157755798020000016658567076840792726_);}
	.st44{fill:url(#SVGID_00000147921819475417430230000016718906921543702949_);}
	.st45{fill:url(#SVGID_00000124868681704871514340000004116652877513987738_);}
	.st46{fill:url(#SVGID_00000018950435090712603210000010022061411225606074_);}
	.st47{fill:url(#SVGID_00000163785570645096978990000004469080975566441094_);}
	.st48{fill:url(#SVGID_00000034050406643217889050000003513072069499019691_);}
	.st49{fill:url(#SVGID_00000176042785579853138210000016437977159930263942_);}
	.st50{fill:url(#SVGID_00000172422272479105603690000006629401870374202507_);}
</style>
<rect class="st21" width="792" height="397.74"/>
<g>
	<g>
		<path class="st29" d="M272.74,270.47l-3.45,11.91h-1.74l-2.77-9.58l-2.87,9.58l-1.73,0.02l-3.33-11.92h1.66l2.6,10.09l2.87-10.09
			h1.74l2.73,10.06l2.61-10.06H272.74z"/>
		<path class="st29" d="M281.01,273.3c0.57,0.3,1.02,0.75,1.34,1.36c0.32,0.6,0.49,1.34,0.49,2.2v5.52h-1.54v-5.29
			c0-0.93-0.23-1.65-0.7-2.14c-0.47-0.5-1.1-0.74-1.91-0.74c-0.82,0-1.47,0.26-1.96,0.77c-0.48,0.51-0.73,1.26-0.73,2.24v5.18h-1.55
			v-12.64H276v4.61c0.31-0.48,0.73-0.85,1.27-1.11c0.54-0.26,1.15-0.39,1.82-0.39C279.8,272.85,280.44,273,281.01,273.3z"/>
		<path class="st29" d="M293.87,278.28h-7.48c0.06,0.92,0.37,1.64,0.95,2.16c0.57,0.52,1.27,0.78,2.09,0.78
			c0.67,0,1.23-0.16,1.68-0.47c0.45-0.31,0.77-0.73,0.95-1.25h1.67c-0.25,0.9-0.75,1.63-1.5,2.19c-0.75,0.56-1.69,0.85-2.8,0.85
			c-0.89,0-1.68-0.2-2.38-0.6s-1.25-0.96-1.65-1.7c-0.4-0.73-0.6-1.59-0.6-2.55s0.19-1.82,0.58-2.54c0.39-0.73,0.93-1.29,1.63-1.68
			s1.51-0.59,2.42-0.59c0.89,0,1.67,0.19,2.36,0.58c0.68,0.39,1.21,0.92,1.58,1.6c0.37,0.68,0.56,1.44,0.56,2.3
			C293.92,277.63,293.9,277.95,293.87,278.28z M291.92,275.49c-0.26-0.43-0.62-0.75-1.07-0.97c-0.45-0.22-0.95-0.33-1.49-0.33
			c-0.79,0-1.45,0.25-2.01,0.75c-0.55,0.5-0.87,1.2-0.95,2.08h5.91C292.32,276.42,292.19,275.91,291.92,275.49z"/>
		<path class="st29" d="M298.7,273.29c0.51-0.3,1.12-0.44,1.85-0.44v1.61h-0.41c-1.74,0-2.61,0.95-2.61,2.84v5.09h-1.55v-9.36h1.55
			v1.52C297.8,274,298.19,273.59,298.7,273.29z"/>
		<path class="st29" d="M310.83,278.28h-7.48c0.06,0.92,0.37,1.64,0.95,2.16c0.57,0.52,1.27,0.78,2.09,0.78
			c0.67,0,1.23-0.16,1.68-0.47c0.45-0.31,0.77-0.73,0.95-1.25h1.67c-0.25,0.9-0.75,1.63-1.5,2.19c-0.75,0.56-1.69,0.85-2.8,0.85
			c-0.89,0-1.68-0.2-2.38-0.6s-1.25-0.96-1.65-1.7c-0.4-0.73-0.6-1.59-0.6-2.55s0.19-1.82,0.58-2.54c0.39-0.73,0.93-1.29,1.63-1.68
			s1.51-0.59,2.42-0.59c0.89,0,1.67,0.19,2.36,0.58c0.68,0.39,1.21,0.92,1.58,1.6c0.37,0.68,0.56,1.44,0.56,2.3
			C310.88,277.63,310.87,277.95,310.83,278.28z M308.88,275.49c-0.26-0.43-0.62-0.75-1.07-0.97c-0.45-0.22-0.95-0.33-1.49-0.33
			c-0.79,0-1.45,0.25-2.01,0.75c-0.55,0.5-0.87,1.2-0.95,2.08h5.91C309.28,276.42,309.15,275.91,308.88,275.49z"/>
		<path class="st29" d="M324.64,276.78c0.36,0.28,0.64,0.64,0.85,1.06c0.21,0.42,0.32,0.87,0.32,1.35c0,0.6-0.15,1.15-0.46,1.63
			c-0.31,0.48-0.75,0.87-1.34,1.14c-0.59,0.28-1.28,0.42-2.08,0.42h-4.44v-11.91h4.27c0.81,0,1.5,0.13,2.07,0.4
			c0.57,0.27,1,0.63,1.28,1.08c0.28,0.46,0.43,0.97,0.43,1.54c0,0.71-0.19,1.29-0.57,1.75c-0.38,0.46-0.89,0.79-1.51,1
			C323.89,276.31,324.28,276.49,324.64,276.78z M319.05,275.61h2.61c0.73,0,1.29-0.17,1.69-0.51s0.6-0.81,0.6-1.42
			s-0.2-1.08-0.6-1.42c-0.4-0.34-0.97-0.51-1.73-0.51h-2.58V275.61z M323.61,280.55c0.43-0.36,0.65-0.87,0.65-1.52
			c0-0.66-0.23-1.18-0.68-1.56c-0.46-0.38-1.06-0.57-1.83-0.57h-2.7v4.2h2.75C322.57,281.1,323.17,280.92,323.61,280.55z"/>
		<path class="st29" d="M336.45,278.28h-7.48c0.06,0.92,0.37,1.64,0.95,2.16c0.57,0.52,1.27,0.78,2.09,0.78
			c0.67,0,1.23-0.16,1.68-0.47c0.45-0.31,0.77-0.73,0.95-1.25h1.67c-0.25,0.9-0.75,1.63-1.5,2.19c-0.75,0.56-1.69,0.85-2.8,0.85
			c-0.89,0-1.68-0.2-2.38-0.6s-1.25-0.96-1.65-1.7c-0.4-0.73-0.6-1.59-0.6-2.55s0.19-1.82,0.58-2.54c0.39-0.73,0.93-1.29,1.63-1.68
			s1.51-0.59,2.42-0.59c0.89,0,1.67,0.19,2.36,0.58c0.68,0.39,1.21,0.92,1.58,1.6c0.37,0.68,0.56,1.44,0.56,2.3
			C336.5,277.63,336.49,277.95,336.45,278.28z M334.5,275.49c-0.26-0.43-0.62-0.75-1.07-0.97c-0.45-0.22-0.95-0.33-1.49-0.33
			c-0.79,0-1.45,0.25-2.01,0.75c-0.55,0.5-0.87,1.2-0.95,2.08h5.91C334.9,276.42,334.77,275.91,334.5,275.49z"/>
		<path class="st29" d="M340.11,269.74v12.64h-1.55v-12.64H340.11z"/>
		<path class="st29" d="M344.45,281.93c-0.71-0.4-1.27-0.96-1.67-1.7s-0.61-1.59-0.61-2.55c0-0.96,0.21-1.8,0.62-2.54
			c0.42-0.73,0.98-1.3,1.7-1.69c0.72-0.39,1.52-0.59,2.41-0.59s1.69,0.2,2.41,0.59c0.72,0.39,1.28,0.95,1.7,1.68
			c0.42,0.73,0.62,1.58,0.62,2.54s-0.21,1.82-0.64,2.55c-0.43,0.73-1,1.3-1.73,1.7c-0.73,0.4-1.54,0.6-2.43,0.6
			C345.96,282.53,345.17,282.33,344.45,281.93z M348.41,280.77c0.49-0.26,0.89-0.66,1.19-1.18c0.3-0.52,0.45-1.16,0.45-1.91
			c0-0.75-0.15-1.39-0.44-1.91c-0.3-0.52-0.68-0.91-1.16-1.17c-0.48-0.26-1-0.38-1.55-0.38c-0.57,0-1.09,0.13-1.56,0.38
			c-0.47,0.26-0.85,0.65-1.14,1.17s-0.43,1.16-0.43,1.91c0,0.76,0.14,1.41,0.42,1.93c0.28,0.52,0.65,0.91,1.12,1.17
			c0.47,0.26,0.98,0.38,1.54,0.38C347.39,281.17,347.92,281.03,348.41,280.77z"/>
		<path class="st29" d="M361.01,273.88c0.71,0.69,1.06,1.68,1.06,2.98v5.52h-1.54v-5.29c0-0.93-0.23-1.65-0.7-2.14
			c-0.47-0.5-1.1-0.74-1.91-0.74c-0.82,0-1.47,0.26-1.96,0.77c-0.48,0.51-0.73,1.26-0.73,2.24v5.18h-1.55v-9.36h1.55v1.33
			c0.31-0.48,0.73-0.85,1.26-1.11c0.53-0.26,1.11-0.39,1.75-0.39C359.39,272.85,360.31,273.19,361.01,273.88z"/>
		<path class="st29" d="M370.6,273.39c0.61,0.35,1.06,0.8,1.36,1.33v-1.71h1.57v9.57c0,0.85-0.18,1.61-0.55,2.28
			c-0.36,0.67-0.89,1.19-1.56,1.56c-0.68,0.38-1.47,0.56-2.37,0.56c-1.23,0-2.25-0.29-3.07-0.87c-0.82-0.58-1.3-1.37-1.45-2.37h1.54
			c0.17,0.57,0.52,1.03,1.06,1.38c0.54,0.35,1.18,0.52,1.93,0.52c0.85,0,1.55-0.27,2.09-0.8c0.54-0.54,0.81-1.29,0.81-2.25v-1.96
			c-0.31,0.55-0.76,1-1.37,1.37c-0.6,0.37-1.31,0.55-2.12,0.55c-0.83,0-1.59-0.21-2.26-0.61c-0.68-0.41-1.21-0.99-1.6-1.73
			c-0.39-0.74-0.58-1.58-0.58-2.53c0-0.96,0.19-1.8,0.58-2.52c0.39-0.72,0.92-1.28,1.6-1.68c0.68-0.4,1.43-0.6,2.26-0.6
			C369.29,272.86,370,273.04,370.6,273.39z M371.54,275.84c-0.28-0.52-0.67-0.92-1.15-1.2c-0.48-0.28-1.02-0.42-1.6-0.42
			s-1.11,0.14-1.59,0.41c-0.48,0.27-0.86,0.67-1.14,1.2c-0.28,0.52-0.43,1.14-0.43,1.84c0,0.72,0.14,1.34,0.43,1.87
			c0.28,0.53,0.67,0.93,1.14,1.21c0.48,0.28,1.01,0.42,1.59,0.42s1.11-0.14,1.6-0.42c0.48-0.28,0.87-0.68,1.15-1.21
			c0.28-0.53,0.43-1.15,0.43-1.85S371.82,276.36,371.54,275.84z"/>
		<path class="st29" d="M376.22,271.19c-0.2-0.2-0.31-0.46-0.31-0.75s0.1-0.55,0.31-0.75c0.21-0.21,0.46-0.31,0.75-0.31
			c0.28,0,0.53,0.1,0.73,0.31s0.3,0.46,0.3,0.75s-0.1,0.55-0.3,0.75c-0.2,0.21-0.44,0.31-0.73,0.31
			C376.67,271.5,376.42,271.39,376.22,271.19z M377.72,273.02v9.36h-1.55v-9.36H377.72z"/>
		<path class="st29" d="M387.69,273.88c0.71,0.69,1.06,1.68,1.06,2.98v5.52h-1.54v-5.29c0-0.93-0.23-1.65-0.7-2.14
			c-0.47-0.5-1.1-0.74-1.91-0.74c-0.82,0-1.47,0.26-1.96,0.77c-0.48,0.51-0.73,1.26-0.73,2.24v5.18h-1.55v-9.36h1.55v1.33
			c0.31-0.48,0.73-0.85,1.26-1.11c0.53-0.26,1.11-0.39,1.75-0.39C386.06,272.85,386.99,273.19,387.69,273.88z"/>
		<path class="st29" d="M397.28,273.39c0.61,0.35,1.06,0.8,1.36,1.33v-1.71h1.57v9.57c0,0.85-0.18,1.61-0.55,2.28
			c-0.36,0.67-0.89,1.19-1.56,1.56c-0.68,0.38-1.47,0.56-2.37,0.56c-1.23,0-2.25-0.29-3.07-0.87c-0.82-0.58-1.3-1.37-1.45-2.37h1.54
			c0.17,0.57,0.52,1.03,1.06,1.38c0.54,0.35,1.18,0.52,1.93,0.52c0.85,0,1.55-0.27,2.09-0.8c0.54-0.54,0.81-1.29,0.81-2.25v-1.96
			c-0.31,0.55-0.76,1-1.37,1.37c-0.6,0.37-1.31,0.55-2.12,0.55c-0.83,0-1.59-0.21-2.26-0.61c-0.68-0.41-1.21-0.99-1.6-1.73
			c-0.39-0.74-0.58-1.58-0.58-2.53c0-0.96,0.19-1.8,0.58-2.52c0.39-0.72,0.92-1.28,1.6-1.68c0.68-0.4,1.43-0.6,2.26-0.6
			C395.97,272.86,396.68,273.04,397.28,273.39z M398.22,275.84c-0.28-0.52-0.67-0.92-1.15-1.2c-0.48-0.28-1.02-0.42-1.6-0.42
			s-1.11,0.14-1.59,0.41c-0.48,0.27-0.86,0.67-1.14,1.2c-0.28,0.52-0.43,1.14-0.43,1.84c0,0.72,0.14,1.34,0.43,1.87
			c0.28,0.53,0.67,0.93,1.14,1.21c0.48,0.28,1.01,0.42,1.59,0.42s1.11-0.14,1.6-0.42c0.48-0.28,0.87-0.68,1.15-1.21
			c0.28-0.53,0.43-1.15,0.43-1.85S398.5,276.36,398.22,275.84z"/>
		<path class="st29" d="M407.46,271.19c-0.2-0.2-0.31-0.46-0.31-0.75s0.1-0.55,0.31-0.75c0.21-0.21,0.46-0.31,0.75-0.31
			c0.28,0,0.53,0.1,0.73,0.31s0.3,0.46,0.3,0.75s-0.1,0.55-0.3,0.75c-0.2,0.21-0.44,0.31-0.73,0.31
			C407.91,271.5,407.66,271.39,407.46,271.19z M408.96,273.02v9.36h-1.55v-9.36H408.96z"/>
		<path class="st29" d="M412.99,282.16c-0.57-0.24-1.02-0.59-1.35-1.02c-0.33-0.44-0.51-0.94-0.55-1.51h1.61
			c0.05,0.47,0.27,0.85,0.66,1.14c0.39,0.3,0.91,0.44,1.55,0.44c0.59,0,1.06-0.13,1.4-0.39c0.34-0.26,0.51-0.59,0.51-0.99
			c0-0.41-0.18-0.71-0.55-0.91s-0.93-0.4-1.69-0.59c-0.69-0.18-1.26-0.37-1.7-0.55c-0.44-0.19-0.81-0.47-1.13-0.84
			c-0.31-0.37-0.47-0.86-0.47-1.46c0-0.48,0.14-0.92,0.43-1.32s0.69-0.71,1.21-0.95c0.52-0.23,1.12-0.35,1.79-0.35
			c1.04,0,1.87,0.26,2.51,0.79c0.64,0.52,0.98,1.24,1.02,2.15h-1.55c-0.03-0.49-0.23-0.88-0.59-1.18s-0.84-0.44-1.44-0.44
			c-0.56,0-1,0.12-1.33,0.36c-0.33,0.24-0.5,0.55-0.5,0.94c0,0.31,0.1,0.56,0.3,0.76s0.45,0.36,0.75,0.48
			c0.3,0.12,0.72,0.25,1.26,0.4c0.67,0.18,1.22,0.36,1.64,0.54c0.42,0.18,0.78,0.44,1.08,0.79s0.46,0.81,0.47,1.38
			c0,0.51-0.14,0.97-0.43,1.38c-0.29,0.41-0.69,0.73-1.2,0.97c-0.52,0.23-1.11,0.35-1.78,0.35
			C414.2,282.53,413.56,282.41,412.99,282.16z"/>
		<path class="st29" d="M428.89,274.3h-1.96v8.08h-1.55v-8.08h-1.21v-1.28h1.21v-0.67c0-1.05,0.27-1.81,0.81-2.3
			c0.54-0.48,1.41-0.73,2.6-0.73v1.3c-0.68,0-1.16,0.13-1.44,0.4c-0.28,0.27-0.42,0.71-0.42,1.32v0.67h1.96V274.3z"/>
		<path class="st29" d="M432.4,281.93c-0.71-0.4-1.27-0.96-1.67-1.7s-0.61-1.59-0.61-2.55c0-0.96,0.21-1.8,0.62-2.54
			c0.42-0.73,0.98-1.3,1.7-1.69c0.72-0.39,1.52-0.59,2.41-0.59s1.69,0.2,2.41,0.59c0.72,0.39,1.28,0.95,1.7,1.68
			c0.42,0.73,0.62,1.58,0.62,2.54s-0.21,1.82-0.64,2.55c-0.43,0.73-1,1.3-1.73,1.7c-0.73,0.4-1.54,0.6-2.43,0.6
			C433.91,282.53,433.11,282.33,432.4,281.93z M436.36,280.77c0.49-0.26,0.89-0.66,1.19-1.18c0.3-0.52,0.45-1.16,0.45-1.91
			c0-0.75-0.15-1.39-0.44-1.91c-0.3-0.52-0.68-0.91-1.16-1.17c-0.48-0.26-1-0.38-1.55-0.38c-0.57,0-1.09,0.13-1.56,0.38
			c-0.47,0.26-0.85,0.65-1.14,1.17s-0.43,1.16-0.43,1.91c0,0.76,0.14,1.41,0.42,1.93c0.28,0.52,0.65,0.91,1.12,1.17
			c0.47,0.26,0.98,0.38,1.54,0.38C435.34,281.17,435.87,281.03,436.36,280.77z"/>
		<path class="st29" d="M444.36,273.29c0.51-0.3,1.12-0.44,1.85-0.44v1.61h-0.41c-1.74,0-2.61,0.95-2.61,2.84v5.09h-1.55v-9.36h1.55
			v1.52C443.46,274,443.85,273.59,444.36,273.29z"/>
		<path class="st29" d="M454.12,271.74v3.98h4.34V277h-4.34v4.1h4.85v1.28h-6.4v-11.92h6.4v1.28H454.12z"/>
		<path class="st29" d="M464.81,280.94l2.9-7.93h1.66l-3.67,9.36h-1.81l-3.67-9.36h1.67L464.81,280.94z"/>
		<path class="st29" d="M479.4,278.28h-7.48c0.06,0.92,0.37,1.64,0.95,2.16c0.57,0.52,1.27,0.78,2.09,0.78
			c0.67,0,1.23-0.16,1.68-0.47c0.45-0.31,0.77-0.73,0.95-1.25h1.67c-0.25,0.9-0.75,1.63-1.5,2.19c-0.75,0.56-1.69,0.85-2.8,0.85
			c-0.89,0-1.68-0.2-2.38-0.6s-1.25-0.96-1.65-1.7c-0.4-0.73-0.6-1.59-0.6-2.55s0.19-1.82,0.58-2.54c0.39-0.73,0.93-1.29,1.63-1.68
			s1.51-0.59,2.42-0.59c0.89,0,1.67,0.19,2.36,0.58c0.68,0.39,1.21,0.92,1.58,1.6c0.37,0.68,0.56,1.44,0.56,2.3
			C479.45,277.63,479.43,277.95,479.4,278.28z M477.45,275.49c-0.26-0.43-0.62-0.75-1.07-0.97c-0.45-0.22-0.95-0.33-1.49-0.33
			c-0.79,0-1.45,0.25-2.01,0.75c-0.55,0.5-0.87,1.2-0.95,2.08h5.91C477.84,276.42,477.71,275.91,477.45,275.49z"/>
		<path class="st29" d="M484.22,273.29c0.51-0.3,1.12-0.44,1.85-0.44v1.61h-0.41c-1.74,0-2.61,0.95-2.61,2.84v5.09h-1.55v-9.36h1.55
			v1.52C483.33,274,483.72,273.59,484.22,273.29z"/>
		<path class="st29" d="M495.93,273.02l-5.64,13.77h-1.61l1.84-4.51l-3.77-9.26h1.73l2.94,7.58l2.9-7.58H495.93z"/>
		<path class="st29" d="M499.19,281.93c-0.71-0.4-1.27-0.96-1.67-1.7s-0.61-1.59-0.61-2.55c0-0.96,0.21-1.8,0.62-2.54
			c0.42-0.73,0.98-1.3,1.7-1.69c0.72-0.39,1.52-0.59,2.41-0.59s1.69,0.2,2.41,0.59c0.72,0.39,1.28,0.95,1.7,1.68
			c0.42,0.73,0.62,1.58,0.62,2.54s-0.21,1.82-0.64,2.55c-0.43,0.73-1,1.3-1.73,1.7c-0.73,0.4-1.54,0.6-2.43,0.6
			C500.69,282.53,499.9,282.33,499.19,281.93z M503.14,280.77c0.49-0.26,0.89-0.66,1.19-1.18c0.3-0.52,0.45-1.16,0.45-1.91
			c0-0.75-0.15-1.39-0.44-1.91c-0.3-0.52-0.68-0.91-1.16-1.17c-0.48-0.26-1-0.38-1.55-0.38c-0.57,0-1.09,0.13-1.56,0.38
			c-0.47,0.26-0.85,0.65-1.14,1.17s-0.43,1.16-0.43,1.91c0,0.76,0.14,1.41,0.42,1.93c0.28,0.52,0.65,0.91,1.12,1.17
			c0.47,0.26,0.98,0.38,1.54,0.38C502.13,281.17,502.65,281.03,503.14,280.77z"/>
		<path class="st29" d="M515.75,273.88c0.71,0.69,1.06,1.68,1.06,2.98v5.52h-1.54v-5.29c0-0.93-0.23-1.65-0.7-2.14
			c-0.47-0.5-1.1-0.74-1.91-0.74c-0.82,0-1.47,0.26-1.96,0.77c-0.48,0.51-0.73,1.26-0.73,2.24v5.18h-1.55v-9.36h1.55v1.33
			c0.31-0.48,0.73-0.85,1.26-1.11c0.53-0.26,1.11-0.39,1.75-0.39C514.12,272.85,515.04,273.19,515.75,273.88z"/>
		<path class="st29" d="M527.84,278.28h-7.48c0.06,0.92,0.37,1.64,0.95,2.16c0.57,0.52,1.27,0.78,2.09,0.78
			c0.67,0,1.23-0.16,1.68-0.47c0.45-0.31,0.77-0.73,0.95-1.25h1.67c-0.25,0.9-0.75,1.63-1.5,2.19c-0.75,0.56-1.69,0.85-2.8,0.85
			c-0.89,0-1.68-0.2-2.38-0.6s-1.25-0.96-1.65-1.7c-0.4-0.73-0.6-1.59-0.6-2.55s0.19-1.82,0.58-2.54c0.39-0.73,0.93-1.29,1.63-1.68
			s1.51-0.59,2.42-0.59c0.89,0,1.67,0.19,2.36,0.58c0.68,0.39,1.21,0.92,1.58,1.6c0.37,0.68,0.56,1.44,0.56,2.3
			C527.89,277.63,527.87,277.95,527.84,278.28z M525.89,275.49c-0.26-0.43-0.62-0.75-1.07-0.97c-0.45-0.22-0.95-0.33-1.49-0.33
			c-0.79,0-1.45,0.25-2.01,0.75c-0.55,0.5-0.87,1.2-0.95,2.08h5.91C526.28,276.42,526.15,275.91,525.89,275.49z"/>
	</g>
	<g>
		<g>
			<linearGradient id="SVGID_1_" gradientUnits="userSpaceOnUse" x1="422.9287" y1="100.344" x2="336.5069" y2="202.5544">
				<stop  offset="0" style="stop-color:#01EFAC"/>
				<stop  offset="0.25" style="stop-color:#01CBAE"/>
				<stop  offset="0.5" style="stop-color:#2082A6"/>
				<stop  offset="0.75" style="stop-color:#524096"/>
				<stop  offset="1" style="stop-color:#5F2A84"/>
			</linearGradient>
			<path class="st2" d="M369.57,149.17c0-18.79,15.23-34.02,34.02-34.02c11.18,0,21.1,5.39,27.3,13.72
				c-5.81-13.68-19.37-23.28-35.17-23.28c-21.09,0-38.19,17.1-38.19,38.19c0,20.66,16.4,37.48,36.89,38.16
				C380.09,177.94,369.57,164.78,369.57,149.17z"/>
		</g>
		<g>
			
				<linearGradient id="SVGID_00000102518908047204975550000014394718187896908436_" gradientUnits="userSpaceOnUse" x1="431.0813" y1="107.2372" x2="344.6595" y2="209.4476">
				<stop  offset="0" style="stop-color:#01EFAC"/>
				<stop  offset="0.25" style="stop-color:#01CBAE"/>
				<stop  offset="0.5" style="stop-color:#2082A6"/>
				<stop  offset="0.75" style="stop-color:#524096"/>
				<stop  offset="1" style="stop-color:#5F2A84"/>
			</linearGradient>
			<path style="fill:url(#SVGID_00000102518908047204975550000014394718187896908436_);" d="M405.54,178.32
				c-16.31,9.32-37.09,3.65-46.41-12.66c-5.55-9.71-5.78-21-1.63-30.51c-9,11.83-10.61,28.36-2.77,42.08
				c10.46,18.31,33.79,24.67,52.1,14.21c17.94-10.25,24.41-32.84,14.83-50.97C425.3,154.91,419.1,170.57,405.54,178.32z"/>
		</g>
		<g>
			
				<linearGradient id="SVGID_00000066513499526326582420000004876712251438975132_" gradientUnits="userSpaceOnUse" x1="440.336" y1="115.0624" x2="353.9142" y2="217.2728">
				<stop  offset="0" style="stop-color:#01EFAC"/>
				<stop  offset="0.25" style="stop-color:#01CBAE"/>
				<stop  offset="0.5" style="stop-color:#2082A6"/>
				<stop  offset="0.75" style="stop-color:#524096"/>
				<stop  offset="1" style="stop-color:#5F2A84"/>
			</linearGradient>
			<path style="fill:url(#SVGID_00000066513499526326582420000004876712251438975132_);" d="M412.14,131.75
				c16.48,8.73,22.75,29.17,14.02,45.65c-5.2,9.8-14.54,16-24.72,17.56c14.7,1.27,29.42-6.16,36.77-20.02
				c9.8-18.49,2.76-41.44-15.74-51.24c-18.12-9.6-40.5-3.04-50.62,14.61C382.02,127.6,398.45,124.49,412.14,131.75z"/>
		</g>
	</g>
	<g>
		<g>
			<g>
				<path class="st5" d="M533.27,199.99c-0.76,0.79-1.62,1.45-2.61,1.97c-1.68,0.89-3.74,0.83-5.29-0.28
					c-1.5-1.07-2.04-2.58-1.7-4.31c0.31-1.58,0.77-3.18,1.45-4.64c0.95-2.03,2.78-2.86,4.97-2.78c2.25,0.08,4.37,0.79,5.22,3.01
					c0.18,0.46,0.23,0.96,0.23,1.48C535.53,196.51,534.71,198.5,533.27,199.99z"/>
			</g>
		</g>
		<g>
			<g>
				
					<linearGradient id="SVGID_00000068676129452781175420000004560901643194597282_" gradientUnits="userSpaceOnUse" x1="259.6929" y1="239.1079" x2="561.6458" y2="245.1136">
					<stop  offset="0" style="stop-color:#01EFAC"/>
					<stop  offset="0.25" style="stop-color:#01CBAE"/>
					<stop  offset="0.5" style="stop-color:#2082A6"/>
					<stop  offset="0.75" style="stop-color:#524096"/>
					<stop  offset="1" style="stop-color:#5F2A84"/>
				</linearGradient>
				<path style="fill:url(#SVGID_00000068676129452781175420000004560901643194597282_);" d="M277.7,216.93
					c-8.55,0-15.29,2.62-20.01,7.8l-0.13,0.13l7.17,5.05l0.11,0.08l0.1-0.1c2.9-3.52,7.24-5.38,12.56-5.38
					c7.03,0,11.56,3.17,11.56,8.08v0.49c-9.07-0.53-21.71,1.65-28.17,7.71c-2.74,2.58-4.13,5.61-4.13,9.02
					c0,7.36,6.52,12.12,16.6,12.12c6.64,0,12.2-2.17,15.69-6.09v5.27h10.22v-28.68C299.29,222.87,291.02,216.93,277.7,216.93z
					 M289.07,246.09c0,5.05-5.59,9-12.72,9c-4.43,0-9.17-1.67-9.17-6.36c0-1.91,0.77-3.63,2.28-5.12c4.1-4.04,12.68-5.45,19.07-5.45
					h0.53V246.09z"/>
			</g>
		</g>
		<g>
			<g>
				
					<linearGradient id="SVGID_00000127034861336384445690000012460122891067322810_" gradientUnits="userSpaceOnUse" x1="259.7197" y1="237.7639" x2="561.6725" y2="243.7696">
					<stop  offset="0" style="stop-color:#01EFAC"/>
					<stop  offset="0.25" style="stop-color:#01CBAE"/>
					<stop  offset="0.5" style="stop-color:#2082A6"/>
					<stop  offset="0.75" style="stop-color:#524096"/>
					<stop  offset="1" style="stop-color:#5F2A84"/>
				</linearGradient>
				<path style="fill:url(#SVGID_00000127034861336384445690000012460122891067322810_);" d="M333.66,216.93
					c-7.46,0-13.27,2.8-16.84,8.12v-7.29H306.6v43.26h10.22V238.1c0-8.93,6.88-13.61,13.68-13.61c4.75,0,10.41,2.06,10.41,11.88
					v24.64h10.22v-26.04C351.13,220.05,341.63,216.93,333.66,216.93z"/>
			</g>
		</g>
		<g>
			<g>
				<g>
					
						<linearGradient id="SVGID_00000169530807370844661380000004950895566383485597_" gradientUnits="userSpaceOnUse" x1="259.8389" y1="231.7685" x2="561.7918" y2="237.7742">
						<stop  offset="0" style="stop-color:#01EFAC"/>
						<stop  offset="0.25" style="stop-color:#01CBAE"/>
						<stop  offset="0.5" style="stop-color:#2082A6"/>
						<stop  offset="0.75" style="stop-color:#524096"/>
						<stop  offset="1" style="stop-color:#5F2A84"/>
					</linearGradient>
					<path style="fill:url(#SVGID_00000169530807370844661380000004950895566383485597_);" d="M383.3,253.53
						c-2.11,0.54-4.1,0.82-5.91,0.82c-5.15,0-7.24-2.32-7.24-8V225.4h12.78v-7.57h-12.78v-11.7h-10.22v11.7h-6.43v7.57h6.43v21.11
						c0,9.79,6.05,15.41,16.59,15.41c2.22,0,4.71-0.3,6.86-0.84l0.11-0.03v-7.59L383.3,253.53z"/>
				</g>
			</g>
			<g>
				<g>
					
						<linearGradient id="SVGID_00000095333476223719070460000014200410000377640090_" gradientUnits="userSpaceOnUse" x1="259.7447" y1="236.5082" x2="561.6975" y2="242.5139">
						<stop  offset="0" style="stop-color:#01EFAC"/>
						<stop  offset="0.25" style="stop-color:#01CBAE"/>
						<stop  offset="0.5" style="stop-color:#2082A6"/>
						<stop  offset="0.75" style="stop-color:#524096"/>
						<stop  offset="1" style="stop-color:#5F2A84"/>
					</linearGradient>
					<path style="fill:url(#SVGID_00000095333476223719070460000014200410000377640090_);" d="M408.71,216.93
						c-8.56,0-15.29,2.62-20.01,7.8l-0.13,0.13l7.17,5.05l0.11,0.08l0.09-0.1c2.91-3.52,7.26-5.38,12.58-5.38
						c7.03,0,11.56,3.17,11.56,8.08v0.49c-9.08-0.53-21.72,1.65-28.17,7.71c-2.74,2.58-4.13,5.61-4.13,9.02
						c0,7.36,6.51,12.12,16.59,12.12c6.65,0,12.2-2.17,15.7-6.09v5.27h10.22v-28.68C430.3,222.87,422.02,216.93,408.71,216.93z
						 M420.08,246.1c0,5.05-5.59,9-12.73,9c-4.43,0-9.16-1.67-9.16-6.36c0-1.91,0.76-3.63,2.27-5.12
						c4.12-4.04,12.69-5.45,19.08-5.45h0.53V246.1z"/>
				</g>
			</g>
		</g>
		<g>
			
				<linearGradient id="SVGID_00000119100789523912039530000000584908005572458376_" gradientUnits="userSpaceOnUse" x1="430.6244" y1="241.7105" x2="503.36" y2="250.3854">
				<stop  offset="0" style="stop-color:#2082A6"/>
				<stop  offset="0.9749" style="stop-color:#524096"/>
			</linearGradient>
			<path style="fill:url(#SVGID_00000119100789523912039530000000584908005572458376_);" d="M470.67,261.56
				c-2.43,0.41-4.7-1.23-5.1-3.65c-2.93-17.7-9.16-24.51-13.6-24.96c-5.05-0.53-13.26,6.21-21.06,26.6c-0.14,0.35-0.6,1.56-0.6,1.56
				h-6.67c-1.2-1.2-1.66-3.04-1.01-4.72c2.56-6.66,5.17-11.99,7.75-16.25c8.89-14.61,17.5-16.5,22.48-16
				c10.42,1.05,18.24,12.83,21.47,32.33C474.72,258.89,473.09,261.17,470.67,261.56z"/>
		</g>
		<g>
			
				<linearGradient id="SVGID_00000180352380119224373600000001518371626191928486_" gradientUnits="userSpaceOnUse" x1="463.3216" y1="250.6086" x2="541.6459" y2="222.8322">
				<stop  offset="0" style="stop-color:#2082A6"/>
				<stop  offset="0.5" style="stop-color:#524096"/>
				<stop  offset="1" style="stop-color:#5F2A84"/>
			</linearGradient>
			<path style="fill:url(#SVGID_00000180352380119224373600000001518371626191928486_);" d="M508.28,261.89c-0.01,0-0.01,0-0.02,0
				c-1.76-0.01-3.4-0.7-4.64-1.94s-1.91-2.9-1.9-4.65l0-0.52c0.01-0.94,0.01-2.02-0.02-2.65c-1.14-20.82-7.79-28.77-11.72-28.9
				c-0.03,0-0.07,0-0.1,0c-4.46,0-12.52,9.29-15.53,34.49c-0.29,2.43-2.48,4.16-4.93,3.88c-2.43-0.29-4.17-2.5-3.88-4.93
				c3.12-26.16,12.41-42.3,24.3-42.3c0.14,0,0.28,0,0.42,0.01c7.89,0.25,14.06,7.32,17.48,19.28c1.42-7.69,4.3-16.71,10.3-26.47
				c1.28-2.09,4.01-2.74,6.1-1.46c2.09,1.28,2.74,4.01,1.46,6.1c-9.84,16.02-10.22,29.5-10.47,38.42c-0.07,2.31-0.12,4.31-0.35,5.99
				C514.35,259.46,511.56,261.89,508.28,261.89z"/>
		</g>
	</g>
</g>
</svg>
