<?xml version="1.0" encoding="utf-8"?>
<!-- Generator: Adobe Illustrator 26.0.3, SVG Export Plug-In . SVG Version: 6.00 Build 0)  -->
<svg version="1.1" id="Layer_1" xmlns="http://www.w3.org/2000/svg" xmlns:xlink="http://www.w3.org/1999/xlink" x="0px" y="0px"
	 viewBox="0 0 792 397.74" style="enable-background:new 0 0 792 397.74;" xml:space="preserve">
<style type="text/css">
	.st0{fill:#F2F2F2;}
	.st1{fill:#6B6B6B;}
	.st2{fill:url(#SVGID_1_);}
	.st3{fill:url(#SVGID_00000044884367716390767530000006100938860784925603_);}
	.st4{fill:url(#SVGID_00000177461035599004107870000017816168832938537653_);}
	.st5{fill:#5F2A84;}
	.st6{fill:url(#SVGID_00000000927185164887922580000003347969755732016289_);}
	.st7{fill:url(#SVGID_00000119080476194084888620000005015465460855448987_);}
	.st8{fill:url(#SVGID_00000183250345820217624420000011890449541378033853_);}
	.st9{fill:url(#SVGID_00000002369066406834672100000009901075702626623402_);}
	.st10{fill:url(#SVGID_00000106143776838713035060000002236196871622440383_);}
	.st11{fill:url(#SVGID_00000090982255357659493990000001404522671399495047_);}
	.st12{fill:url(#SVGID_00000118386653706112225050000013305307307393547173_);}
	.st13{fill:url(#SVGID_00000009586171753030398280000003485250877827186339_);}
	.st14{fill:url(#SVGID_00000042723534485442487800000005700583957060417975_);}
	.st15{fill:url(#SVGID_00000039816682824663048100000007762298962137105082_);}
	.st16{fill:url(#SVGID_00000172427680314113923390000011648759346174871939_);}
	.st17{fill:url(#SVGID_00000116232283116933797130000003712992562730427536_);}
	.st18{fill:url(#SVGID_00000034771152633649006310000016811944095489111217_);}
	.st19{fill:url(#SVGID_00000083773936766309941390000001291661765754692740_);}
	.st20{fill:url(#SVGID_00000021823461075948431470000009831626529662703538_);}
	.st21{fill:#1B1C1C;}
	.st22{fill:url(#SVGID_00000083067247874371274440000014190899017916454818_);}
	.st23{fill:url(#SVGID_00000140012439127399856670000009446349757544391343_);}
	.st24{fill:url(#SVGID_00000134951022845983523500000000232785868451871403_);}
	.st25{fill:url(#SVGID_00000039824067927635423920000017463848655653568417_);}
	.st26{fill:url(#SVGID_00000106844368954469202710000006222044176997320336_);}
	.st27{fill:url(#SVGID_00000005255389879707419930000017053839487904298389_);}
	.st28{fill:#221F1F;}
	.st29{fill:#FFFFFF;}
	.st30{fill:url(#SVGID_00000114058988377044653820000000879780269359266452_);}
	.st31{fill:url(#SVGID_00000036937978078164478330000002870731374550394806_);}
	.st32{fill:url(#SVGID_00000036965902329065003800000000907951771357121418_);}
	.st33{fill:url(#SVGID_00000059275927835972683380000011904011734940572299_);}
	.st34{fill:url(#SVGID_00000179627409056381350590000007102344848443112094_);}
	.st35{fill:url(#SVGID_00000022561197082265417040000017184915075613680573_);}
	.st36{fill:url(#SVGID_00000088845966660114526490000002776802008743758232_);}
	.st37{fill:url(#SVGID_00000008135212127653685090000005706190366835835011_);}
	.st38{fill:url(#SVGID_00000071517743001826508380000006142744895164112818_);}
	.st39{fill:url(#SVGID_00000091696423483967808520000004124968389475349897_);}
	.st40{fill:url(#SVGID_00000153701282510847129410000004068690357803532704_);}
	.st41{fill:url(#SVGID_00000101073260619267385250000000951743663406291607_);}
	.st42{fill:url(#SVGID_00000065775785555324402960000000278060261259928213_);}
	.st43{fill:url(#SVGID_00000125589082940027862060000005912571879270445448_);}
	.st44{fill:url(#SVGID_00000057110128785381798920000017815987685526760104_);}
	.st45{fill:url(#SVGID_00000116231305330236424110000000347752567193589934_);}
	.st46{fill:url(#SVGID_00000125589846644989272310000016190220789078815671_);}
	.st47{fill:url(#SVGID_00000088097766922524841750000012596094645548236729_);}
	.st48{fill:url(#SVGID_00000018219161959284177180000011425619074325436851_);}
	.st49{fill:url(#SVGID_00000056387333740693219390000007933064064159444153_);}
	.st50{fill:url(#SVGID_00000057147058240742454450000015722766513074440631_);}
</style>
<rect class="st0" width="792" height="397.74"/>
<g>
	<g>
		<path class="st1" d="M207.21,243.93l-5.28,18.23h-2.67l-4.24-14.68l-4.4,14.68l-2.64,0.03l-5.1-18.26h2.54l3.98,15.46l4.4-15.46
			h2.67l4.19,15.41l4-15.41H207.21z"/>
		<path class="st1" d="M219.88,248.26c0.87,0.46,1.56,1.16,2.05,2.08c0.5,0.92,0.75,2.05,0.75,3.38v8.45h-2.35v-8.11
			c0-1.43-0.36-2.52-1.07-3.28c-0.72-0.76-1.69-1.14-2.93-1.14c-1.26,0-2.25,0.39-3,1.18c-0.74,0.78-1.11,1.93-1.11,3.43v7.93h-2.38
			v-19.36h2.38v7.06c0.47-0.73,1.12-1.3,1.95-1.7c0.83-0.4,1.76-0.6,2.79-0.6C218.03,247.57,219,247.8,219.88,248.26z"/>
		<path class="st1" d="M239.57,255.89h-11.46c0.09,1.41,0.57,2.52,1.45,3.31c0.88,0.79,1.95,1.19,3.21,1.19
			c1.03,0,1.89-0.24,2.58-0.72s1.17-1.12,1.45-1.92h2.56c-0.38,1.38-1.15,2.5-2.3,3.36c-1.15,0.86-2.58,1.29-4.29,1.29
			c-1.36,0-2.58-0.3-3.65-0.92c-1.07-0.61-1.91-1.48-2.52-2.6c-0.61-1.12-0.92-2.43-0.92-3.91s0.3-2.78,0.89-3.9
			c0.59-1.12,1.43-1.97,2.5-2.58c1.07-0.6,2.31-0.9,3.7-0.9c1.36,0,2.56,0.3,3.61,0.89c1.05,0.59,1.85,1.41,2.42,2.45
			c0.57,1.04,0.85,2.21,0.85,3.52C239.65,254.91,239.63,255.38,239.57,255.89z M236.59,251.61c-0.4-0.65-0.95-1.15-1.64-1.49
			c-0.69-0.34-1.45-0.51-2.29-0.51c-1.2,0-2.23,0.38-3.07,1.15c-0.85,0.77-1.33,1.83-1.45,3.19h9.05
			C237.19,253.05,236.99,252.27,236.59,251.61z"/>
		<path class="st1" d="M246.97,248.25c0.78-0.45,1.72-0.68,2.84-0.68v2.46h-0.63c-2.67,0-4,1.45-4,4.34v7.8h-2.38v-14.34h2.38v2.33
			C245.59,249.34,246.19,248.71,246.97,248.25z"/>
		<path class="st1" d="M265.55,255.89h-11.46c0.09,1.41,0.57,2.52,1.45,3.31c0.88,0.79,1.95,1.19,3.21,1.19
			c1.03,0,1.89-0.24,2.58-0.72s1.17-1.12,1.45-1.92h2.56c-0.38,1.38-1.15,2.5-2.3,3.36c-1.15,0.86-2.58,1.29-4.29,1.29
			c-1.36,0-2.58-0.3-3.65-0.92c-1.07-0.61-1.91-1.48-2.52-2.6c-0.61-1.12-0.92-2.43-0.92-3.91s0.3-2.78,0.89-3.9
			c0.59-1.12,1.43-1.97,2.5-2.58c1.07-0.6,2.31-0.9,3.7-0.9c1.36,0,2.56,0.3,3.61,0.89c1.05,0.59,1.85,1.41,2.42,2.45
			c0.57,1.04,0.85,2.21,0.85,3.52C265.63,254.91,265.6,255.38,265.55,255.89z M262.57,251.61c-0.4-0.65-0.95-1.15-1.64-1.49
			c-0.69-0.34-1.45-0.51-2.29-0.51c-1.2,0-2.23,0.38-3.07,1.15c-0.85,0.77-1.33,1.83-1.45,3.19h9.05
			C263.17,253.05,262.97,252.27,262.57,251.61z"/>
		<path class="st1" d="M286.7,253.59c0.55,0.44,0.99,0.98,1.31,1.62c0.32,0.65,0.48,1.33,0.48,2.07c0,0.92-0.24,1.76-0.71,2.5
			c-0.47,0.74-1.16,1.33-2.05,1.75c-0.9,0.43-1.96,0.64-3.18,0.64h-6.8v-18.23h6.54c1.24,0,2.29,0.21,3.17,0.61
			c0.87,0.41,1.53,0.96,1.96,1.66s0.65,1.48,0.65,2.35c0,1.08-0.29,1.97-0.88,2.68c-0.58,0.71-1.36,1.22-2.32,1.53
			C285.55,252.88,286.15,253.15,286.7,253.59z M278.14,251.81h4c1.12,0,1.98-0.26,2.59-0.78c0.61-0.52,0.92-1.25,0.92-2.17
			c0-0.92-0.31-1.65-0.92-2.17c-0.61-0.52-1.49-0.79-2.64-0.79h-3.95V251.81z M285.12,259.37c0.66-0.56,0.99-1.33,0.99-2.33
			c0-1.01-0.35-1.81-1.05-2.39c-0.7-0.58-1.63-0.88-2.8-0.88h-4.13v6.44h4.21C283.53,260.21,284.46,259.93,285.12,259.37z"/>
		<path class="st1" d="M304.79,255.89h-11.46c0.09,1.41,0.57,2.52,1.45,3.31c0.88,0.79,1.95,1.19,3.21,1.19
			c1.03,0,1.89-0.24,2.58-0.72s1.17-1.12,1.45-1.92h2.56c-0.38,1.38-1.15,2.5-2.3,3.36c-1.15,0.86-2.58,1.29-4.29,1.29
			c-1.36,0-2.58-0.3-3.65-0.92c-1.07-0.61-1.91-1.48-2.52-2.6c-0.61-1.12-0.92-2.43-0.92-3.91s0.3-2.78,0.89-3.9
			c0.59-1.12,1.43-1.97,2.5-2.58c1.07-0.6,2.31-0.9,3.7-0.9c1.36,0,2.56,0.3,3.61,0.89c1.05,0.59,1.85,1.41,2.42,2.45
			c0.57,1.04,0.85,2.21,0.85,3.52C304.87,254.91,304.85,255.38,304.79,255.89z M301.81,251.61c-0.4-0.65-0.95-1.15-1.64-1.49
			c-0.69-0.34-1.45-0.51-2.29-0.51c-1.2,0-2.23,0.38-3.07,1.15c-0.85,0.77-1.33,1.83-1.45,3.19h9.05
			C302.41,253.05,302.21,252.27,301.81,251.61z"/>
		<path class="st1" d="M310.39,242.81v19.36h-2.38v-19.36H310.39z"/>
		<path class="st1" d="M317.05,261.49c-1.09-0.61-1.95-1.48-2.56-2.6c-0.62-1.12-0.93-2.43-0.93-3.91c0-1.46,0.32-2.76,0.95-3.88
			s1.5-1.99,2.6-2.59c1.1-0.6,2.33-0.9,3.69-0.9s2.59,0.3,3.69,0.9c1.1,0.6,1.97,1.46,2.6,2.58c0.64,1.12,0.95,2.42,0.95,3.9
			s-0.33,2.79-0.98,3.91c-0.65,1.12-1.54,1.99-2.66,2.6c-1.12,0.61-2.35,0.92-3.71,0.92C319.36,262.4,318.14,262.1,317.05,261.49z
			 M323.11,259.71c0.75-0.4,1.36-1,1.82-1.81c0.46-0.8,0.69-1.78,0.69-2.93s-0.23-2.13-0.68-2.93c-0.45-0.8-1.05-1.4-1.78-1.79
			c-0.73-0.39-1.53-0.59-2.38-0.59c-0.87,0-1.67,0.2-2.39,0.59c-0.72,0.39-1.3,0.99-1.74,1.79c-0.44,0.8-0.65,1.78-0.65,2.93
			c0,1.17,0.21,2.15,0.64,2.96c0.43,0.8,1,1.4,1.71,1.79c0.71,0.39,1.5,0.59,2.35,0.59C321.55,260.31,322.36,260.11,323.11,259.71z"
			/>
		<path class="st1" d="M342.41,249.15c1.08,1.06,1.62,2.58,1.62,4.57v8.45h-2.35v-8.11c0-1.43-0.36-2.52-1.07-3.28
			c-0.72-0.76-1.69-1.14-2.93-1.14c-1.26,0-2.25,0.39-3,1.18c-0.74,0.78-1.11,1.93-1.11,3.43v7.93h-2.38v-14.34h2.38v2.04
			c0.47-0.73,1.11-1.3,1.92-1.7s1.7-0.6,2.68-0.6C339.92,247.57,341.33,248.1,342.41,249.15z"/>
		<path class="st1" d="M357.1,248.41c0.93,0.54,1.63,1.22,2.08,2.04v-2.62h2.41v14.65c0,1.31-0.28,2.47-0.84,3.49
			c-0.56,1.02-1.36,1.82-2.39,2.39s-2.25,0.86-3.62,0.86c-1.88,0-3.45-0.44-4.71-1.33s-2-2.1-2.22-3.64h2.35
			c0.26,0.87,0.8,1.57,1.62,2.11c0.82,0.53,1.8,0.8,2.96,0.8c1.31,0,2.38-0.41,3.2-1.23c0.83-0.82,1.24-1.97,1.24-3.45v-3.01
			c-0.47,0.84-1.17,1.53-2.09,2.09c-0.92,0.56-2.01,0.84-3.24,0.84c-1.27,0-2.43-0.31-3.47-0.94s-1.85-1.51-2.45-2.64
			c-0.59-1.13-0.89-2.42-0.89-3.87c0-1.46,0.3-2.75,0.89-3.86c0.59-1.11,1.41-1.97,2.45-2.58s2.19-0.92,3.47-0.92
			C355.08,247.6,356.17,247.87,357.1,248.41z M358.53,252.15c-0.44-0.8-1.02-1.42-1.77-1.84c-0.74-0.43-1.56-0.64-2.45-0.64
			c-0.89,0-1.7,0.21-2.43,0.63c-0.73,0.42-1.32,1.03-1.75,1.83c-0.44,0.8-0.65,1.74-0.65,2.83c0,1.1,0.22,2.05,0.65,2.87
			c0.44,0.81,1.02,1.43,1.75,1.86c0.73,0.43,1.54,0.64,2.43,0.64c0.89,0,1.7-0.21,2.45-0.64c0.74-0.43,1.33-1.05,1.77-1.86
			c0.44-0.81,0.65-1.76,0.65-2.84C359.18,253.89,358.96,252.95,358.53,252.15z"/>
		<path class="st1" d="M365.7,245.03c-0.31-0.31-0.47-0.7-0.47-1.15c0-0.45,0.16-0.84,0.47-1.15c0.31-0.31,0.7-0.47,1.15-0.47
			c0.44,0,0.81,0.16,1.11,0.47c0.3,0.31,0.46,0.7,0.46,1.15c0,0.45-0.15,0.84-0.46,1.15c-0.31,0.31-0.68,0.47-1.11,0.47
			C366.39,245.5,366.01,245.35,365.7,245.03z M368,247.83v14.34h-2.38v-14.34H368z"/>
		<path class="st1" d="M383.28,249.15c1.08,1.06,1.62,2.58,1.62,4.57v8.45h-2.35v-8.11c0-1.43-0.36-2.52-1.07-3.28
			c-0.72-0.76-1.69-1.14-2.93-1.14c-1.26,0-2.25,0.39-3,1.18c-0.74,0.78-1.11,1.93-1.11,3.43v7.93h-2.38v-14.34h2.38v2.04
			c0.47-0.73,1.11-1.3,1.92-1.7s1.7-0.6,2.68-0.6C380.78,247.57,382.2,248.1,383.28,249.15z"/>
		<path class="st1" d="M397.97,248.41c0.93,0.54,1.63,1.22,2.08,2.04v-2.62h2.41v14.65c0,1.31-0.28,2.47-0.84,3.49
			c-0.56,1.02-1.36,1.82-2.39,2.39s-2.25,0.86-3.62,0.86c-1.88,0-3.45-0.44-4.71-1.33s-2-2.1-2.22-3.64h2.35
			c0.26,0.87,0.8,1.57,1.62,2.11c0.82,0.53,1.8,0.8,2.96,0.8c1.31,0,2.38-0.41,3.2-1.23c0.83-0.82,1.24-1.97,1.24-3.45v-3.01
			c-0.47,0.84-1.17,1.53-2.09,2.09c-0.92,0.56-2.01,0.84-3.24,0.84c-1.27,0-2.43-0.31-3.47-0.94s-1.85-1.51-2.45-2.64
			c-0.59-1.13-0.89-2.42-0.89-3.87c0-1.46,0.3-2.75,0.89-3.86c0.59-1.11,1.41-1.97,2.45-2.58s2.19-0.92,3.47-0.92
			C395.95,247.6,397.03,247.87,397.97,248.41z M399.39,252.15c-0.44-0.8-1.02-1.42-1.77-1.84c-0.74-0.43-1.56-0.64-2.45-0.64
			c-0.89,0-1.7,0.21-2.43,0.63c-0.73,0.42-1.32,1.03-1.75,1.83c-0.44,0.8-0.65,1.74-0.65,2.83c0,1.1,0.22,2.05,0.65,2.87
			c0.44,0.81,1.02,1.43,1.75,1.86c0.73,0.43,1.54,0.64,2.43,0.64c0.89,0,1.7-0.21,2.45-0.64c0.74-0.43,1.33-1.05,1.77-1.86
			c0.44-0.81,0.65-1.76,0.65-2.84C400.05,253.89,399.83,252.95,399.39,252.15z"/>
		<path class="st1" d="M413.55,245.03c-0.31-0.31-0.47-0.7-0.47-1.15c0-0.45,0.16-0.84,0.47-1.15c0.31-0.31,0.7-0.47,1.15-0.47
			c0.44,0,0.81,0.16,1.11,0.47c0.3,0.31,0.46,0.7,0.46,1.15c0,0.45-0.15,0.84-0.46,1.15c-0.31,0.31-0.68,0.47-1.11,0.47
			C414.24,245.5,413.86,245.35,413.55,245.03z M415.85,247.83v14.34h-2.38v-14.34H415.85z"/>
		<path class="st1" d="M422.02,261.84c-0.87-0.38-1.56-0.9-2.07-1.57c-0.51-0.67-0.79-1.44-0.84-2.32h2.46
			c0.07,0.71,0.41,1.3,1.01,1.75c0.6,0.45,1.39,0.68,2.37,0.68c0.91,0,1.62-0.2,2.15-0.6c0.52-0.4,0.78-0.91,0.78-1.52
			c0-0.63-0.28-1.09-0.84-1.4c-0.56-0.3-1.42-0.61-2.59-0.9c-1.06-0.28-1.93-0.56-2.6-0.85c-0.67-0.29-1.25-0.71-1.73-1.28
			c-0.48-0.57-0.72-1.31-0.72-2.24c0-0.73,0.22-1.4,0.65-2.01c0.44-0.61,1.06-1.09,1.86-1.45s1.72-0.54,2.75-0.54
			c1.59,0,2.87,0.4,3.85,1.2c0.98,0.8,1.5,1.9,1.57,3.3h-2.38c-0.05-0.75-0.35-1.35-0.9-1.8c-0.55-0.45-1.29-0.68-2.21-0.68
			c-0.85,0-1.53,0.18-2.04,0.55s-0.76,0.85-0.76,1.44c0,0.47,0.15,0.86,0.46,1.16c0.3,0.31,0.69,0.55,1.15,0.73
			c0.46,0.18,1.1,0.39,1.92,0.62c1.03,0.28,1.87,0.55,2.51,0.82c0.65,0.27,1.2,0.68,1.66,1.22c0.46,0.54,0.7,1.25,0.72,2.12
			c0,0.79-0.22,1.49-0.65,2.12c-0.44,0.63-1.05,1.12-1.84,1.48c-0.79,0.36-1.71,0.54-2.73,0.54
			C423.88,262.4,422.89,262.22,422.02,261.84z"/>
		<path class="st1" d="M446.38,249.79h-3.01v12.37h-2.38v-12.37h-1.86v-1.96h1.86v-1.02c0-1.6,0.41-2.78,1.24-3.52
			c0.83-0.74,2.16-1.11,3.99-1.11v1.99c-1.05,0-1.78,0.21-2.21,0.62c-0.43,0.41-0.64,1.08-0.64,2.03v1.02h3.01V249.79z"/>
		<path class="st1" d="M451.75,261.49c-1.09-0.61-1.95-1.48-2.56-2.6c-0.62-1.12-0.93-2.43-0.93-3.91c0-1.46,0.32-2.76,0.95-3.88
			s1.5-1.99,2.6-2.59c1.1-0.6,2.33-0.9,3.69-0.9s2.59,0.3,3.69,0.9c1.1,0.6,1.97,1.46,2.6,2.58c0.64,1.12,0.95,2.42,0.95,3.9
			s-0.33,2.79-0.98,3.91c-0.65,1.12-1.54,1.99-2.66,2.6c-1.12,0.61-2.35,0.92-3.71,0.92C454.06,262.4,452.84,262.1,451.75,261.49z
			 M457.81,259.71c0.75-0.4,1.36-1,1.82-1.81c0.46-0.8,0.69-1.78,0.69-2.93s-0.23-2.13-0.68-2.93c-0.45-0.8-1.05-1.4-1.78-1.79
			c-0.73-0.39-1.53-0.59-2.38-0.59c-0.87,0-1.67,0.2-2.39,0.59c-0.72,0.39-1.3,0.99-1.74,1.79c-0.44,0.8-0.65,1.78-0.65,2.93
			c0,1.17,0.21,2.15,0.64,2.96c0.43,0.8,1,1.4,1.71,1.79c0.71,0.39,1.5,0.59,2.35,0.59C456.26,260.31,457.06,260.11,457.81,259.71z"
			/>
		<path class="st1" d="M470.07,248.25c0.78-0.45,1.72-0.68,2.84-0.68v2.46h-0.63c-2.67,0-4,1.45-4,4.34v7.8h-2.38v-14.34h2.38v2.33
			C468.69,249.34,469.29,248.71,470.07,248.25z"/>
		<path class="st1" d="M485.02,245.87v6.1h6.65v1.96h-6.65v6.28h7.43v1.96h-9.81v-18.26h9.81v1.96H485.02z"/>
		<path class="st1" d="M501.39,259.97l4.45-12.14h2.54l-5.62,14.34h-2.77l-5.62-14.34h2.56L501.39,259.97z"/>
		<path class="st1" d="M523.73,255.89h-11.46c0.09,1.41,0.57,2.52,1.45,3.31c0.88,0.79,1.95,1.19,3.21,1.19
			c1.03,0,1.89-0.24,2.58-0.72s1.17-1.12,1.45-1.92h2.56c-0.38,1.38-1.15,2.5-2.3,3.36c-1.15,0.86-2.58,1.29-4.29,1.29
			c-1.36,0-2.58-0.3-3.65-0.92c-1.07-0.61-1.91-1.48-2.52-2.6c-0.61-1.12-0.92-2.43-0.92-3.91s0.3-2.78,0.89-3.9
			c0.59-1.12,1.43-1.97,2.5-2.58c1.07-0.6,2.31-0.9,3.7-0.9c1.36,0,2.56,0.3,3.61,0.89c1.05,0.59,1.85,1.41,2.42,2.45
			c0.57,1.04,0.85,2.21,0.85,3.52C523.81,254.91,523.79,255.38,523.73,255.89z M520.75,251.61c-0.4-0.65-0.95-1.15-1.64-1.49
			c-0.69-0.34-1.45-0.51-2.29-0.51c-1.2,0-2.23,0.38-3.07,1.15c-0.85,0.77-1.33,1.83-1.45,3.19h9.05
			C521.35,253.05,521.15,252.27,520.75,251.61z"/>
		<path class="st1" d="M531.12,248.25c0.78-0.45,1.72-0.68,2.84-0.68v2.46h-0.63c-2.67,0-4,1.45-4,4.34v7.8h-2.38v-14.34h2.38v2.33
			C529.75,249.34,530.35,248.71,531.12,248.25z"/>
		<path class="st1" d="M549.06,247.83l-8.63,21.09h-2.46l2.83-6.91l-5.78-14.18h2.64l4.5,11.62l4.45-11.62H549.06z"/>
		<path class="st1" d="M554.04,261.49c-1.09-0.61-1.95-1.48-2.56-2.6c-0.62-1.12-0.93-2.43-0.93-3.91c0-1.46,0.32-2.76,0.95-3.88
			s1.5-1.99,2.6-2.59c1.1-0.6,2.33-0.9,3.69-0.9s2.59,0.3,3.69,0.9c1.1,0.6,1.97,1.46,2.6,2.58c0.64,1.12,0.95,2.42,0.95,3.9
			s-0.33,2.79-0.98,3.91c-0.65,1.12-1.54,1.99-2.66,2.6c-1.12,0.61-2.35,0.92-3.71,0.92C556.35,262.4,555.13,262.1,554.04,261.49z
			 M560.1,259.71c0.75-0.4,1.36-1,1.82-1.81c0.46-0.8,0.69-1.78,0.69-2.93s-0.23-2.13-0.68-2.93c-0.45-0.8-1.05-1.4-1.78-1.79
			c-0.73-0.39-1.53-0.59-2.38-0.59c-0.87,0-1.67,0.2-2.39,0.59c-0.72,0.39-1.3,0.99-1.74,1.79c-0.44,0.8-0.65,1.78-0.65,2.93
			c0,1.17,0.21,2.15,0.64,2.96c0.43,0.8,1,1.4,1.71,1.79c0.71,0.39,1.5,0.59,2.35,0.59C558.55,260.31,559.35,260.11,560.1,259.71z"
			/>
		<path class="st1" d="M579.41,249.15c1.08,1.06,1.62,2.58,1.62,4.57v8.45h-2.35v-8.11c0-1.43-0.36-2.52-1.07-3.28
			c-0.72-0.76-1.69-1.14-2.93-1.14c-1.26,0-2.25,0.39-3,1.18c-0.74,0.78-1.11,1.93-1.11,3.43v7.93h-2.38v-14.34h2.38v2.04
			c0.47-0.73,1.11-1.3,1.92-1.7s1.7-0.6,2.68-0.6C576.91,247.57,578.32,248.1,579.41,249.15z"/>
		<path class="st1" d="M597.93,255.89h-11.46c0.09,1.41,0.57,2.52,1.45,3.31c0.88,0.79,1.95,1.19,3.21,1.19
			c1.03,0,1.89-0.24,2.58-0.72s1.17-1.12,1.45-1.92h2.56c-0.38,1.38-1.15,2.5-2.3,3.36c-1.15,0.86-2.58,1.29-4.29,1.29
			c-1.36,0-2.58-0.3-3.65-0.92c-1.07-0.61-1.91-1.48-2.52-2.6c-0.61-1.12-0.92-2.43-0.92-3.91s0.3-2.78,0.89-3.9
			c0.59-1.12,1.43-1.97,2.5-2.58c1.07-0.6,2.31-0.9,3.7-0.9c1.36,0,2.56,0.3,3.61,0.89c1.05,0.59,1.85,1.41,2.42,2.45
			c0.57,1.04,0.85,2.21,0.85,3.52C598.01,254.91,597.98,255.38,597.93,255.89z M594.95,251.61c-0.4-0.65-0.95-1.15-1.64-1.49
			c-0.69-0.34-1.45-0.51-2.29-0.51c-1.2,0-2.23,0.38-3.07,1.15c-0.85,0.77-1.33,1.83-1.45,3.19h9.05
			C595.55,253.05,595.35,252.27,594.95,251.61z"/>
	</g>
	<g>
		<g>
			<g>
				<path class="st5" d="M606.25,135.98c-1.17,1.21-2.48,2.21-4,3.02c-2.58,1.36-5.73,1.27-8.11-0.42c-2.3-1.64-3.12-3.95-2.6-6.6
					c0.48-2.42,1.18-4.87,2.22-7.1c1.45-3.1,4.27-4.38,7.62-4.26c3.44,0.13,6.7,1.21,8,4.6c0.27,0.7,0.35,1.47,0.35,2.27
					C609.72,130.65,608.45,133.71,606.25,135.98z"/>
			</g>
		</g>
		<g>
			<g>
				<linearGradient id="SVGID_1_" gradientUnits="userSpaceOnUse" x1="187.2275" y1="195.8974" x2="649.7085" y2="205.0959">
					<stop  offset="0" style="stop-color:#01EFAC"/>
					<stop  offset="0.25" style="stop-color:#01CBAE"/>
					<stop  offset="0.5" style="stop-color:#2082A6"/>
					<stop  offset="0.75" style="stop-color:#524096"/>
					<stop  offset="1" style="stop-color:#5F2A84"/>
				</linearGradient>
				<path class="st2" d="M214.81,161.92c-13.09,0-23.41,4.02-30.65,11.95l-0.19,0.19l10.98,7.74l0.18,0.12l0.16-0.16
					c4.44-5.39,11.09-8.24,19.24-8.24c10.77,0,17.71,4.85,17.71,12.38v0.76c-13.89-0.82-33.25,2.52-43.14,11.81
					c-4.19,3.96-6.32,8.59-6.32,13.81c0,11.27,9.99,18.56,25.43,18.56c10.16,0,18.68-3.32,24.03-9.33v8.07h15.65v-43.93
					C247.88,171.02,235.21,161.92,214.81,161.92z M232.22,206.59c0,7.74-8.55,13.79-19.47,13.79c-6.79,0-14.04-2.56-14.04-9.74
					c0-2.93,1.18-5.57,3.49-7.84c6.28-6.19,19.42-8.34,29.21-8.34h0.81V206.59z"/>
			</g>
		</g>
		<g>
			<g>
				
					<linearGradient id="SVGID_00000161604692253924819560000004268123644464366220_" gradientUnits="userSpaceOnUse" x1="187.2684" y1="193.8389" x2="649.7495" y2="203.0374">
					<stop  offset="0" style="stop-color:#01EFAC"/>
					<stop  offset="0.25" style="stop-color:#01CBAE"/>
					<stop  offset="0.5" style="stop-color:#2082A6"/>
					<stop  offset="0.75" style="stop-color:#524096"/>
					<stop  offset="1" style="stop-color:#5F2A84"/>
				</linearGradient>
				<path style="fill:url(#SVGID_00000161604692253924819560000004268123644464366220_);" d="M300.52,161.92
					c-11.43,0-20.33,4.29-25.8,12.43v-11.17h-15.65v66.26h15.65v-35.09c0-13.68,10.53-20.85,20.95-20.85
					c7.27,0,15.94,3.16,15.94,18.19v37.75h15.65v-39.88C327.27,166.71,312.72,161.92,300.52,161.92z"/>
			</g>
		</g>
		<g>
			<g>
				<g>
					
						<linearGradient id="SVGID_00000014629305301349967590000009136015434213769096_" gradientUnits="userSpaceOnUse" x1="187.4511" y1="184.6562" x2="649.9321" y2="193.8547">
						<stop  offset="0" style="stop-color:#01EFAC"/>
						<stop  offset="0.25" style="stop-color:#01CBAE"/>
						<stop  offset="0.5" style="stop-color:#2082A6"/>
						<stop  offset="0.75" style="stop-color:#524096"/>
						<stop  offset="1" style="stop-color:#5F2A84"/>
					</linearGradient>
					<path style="fill:url(#SVGID_00000014629305301349967590000009136015434213769096_);" d="M376.56,217.98
						c-3.24,0.83-6.29,1.26-9.06,1.26c-7.9,0-11.1-3.55-11.1-12.26V174.9h19.57v-11.6H356.4v-17.92h-15.65v17.92h-9.85v11.6h9.85
						v32.33c0,14.99,9.27,23.61,25.41,23.61c3.39,0,7.22-0.47,10.51-1.28l0.17-0.04V217.9L376.56,217.98z"/>
				</g>
			</g>
			<g>
				<g>
					
						<linearGradient id="SVGID_00000067946461443199797300000016087103995835806103_" gradientUnits="userSpaceOnUse" x1="187.3067" y1="191.9156" x2="649.7877" y2="201.1141">
						<stop  offset="0" style="stop-color:#01EFAC"/>
						<stop  offset="0.25" style="stop-color:#01CBAE"/>
						<stop  offset="0.5" style="stop-color:#2082A6"/>
						<stop  offset="0.75" style="stop-color:#524096"/>
						<stop  offset="1" style="stop-color:#5F2A84"/>
					</linearGradient>
					<path style="fill:url(#SVGID_00000067946461443199797300000016087103995835806103_);" d="M415.47,161.93
						c-13.11,0-23.41,4.02-30.65,11.95l-0.19,0.19l10.98,7.74l0.17,0.12l0.14-0.16c4.46-5.39,11.12-8.24,19.26-8.24
						c10.77,0,17.71,4.85,17.71,12.38v0.76c-13.91-0.81-33.27,2.52-43.14,11.81c-4.19,3.96-6.32,8.59-6.32,13.81
						c0,11.27,9.97,18.56,25.41,18.56c10.18,0,18.68-3.32,24.05-9.33v8.07h15.65v-43.93C448.54,171.03,435.86,161.93,415.47,161.93z
						 M432.89,206.6c0,7.74-8.55,13.79-19.49,13.79c-6.79,0-14.02-2.56-14.02-9.74c0-2.93,1.16-5.57,3.47-7.84
						c6.3-6.19,19.44-8.34,29.23-8.34h0.82V206.6z"/>
				</g>
			</g>
		</g>
		<g>
			
				<linearGradient id="SVGID_00000149361879097188660800000013411773241445499571_" gradientUnits="userSpaceOnUse" x1="449.0318" y1="199.8837" x2="560.4361" y2="213.1704">
				<stop  offset="0" style="stop-color:#2082A6"/>
				<stop  offset="0.9749" style="stop-color:#524096"/>
			</linearGradient>
			<path style="fill:url(#SVGID_00000149361879097188660800000013411773241445499571_);" d="M510.37,230.29
				c-3.72,0.62-7.2-1.88-7.82-5.59c-4.48-27.12-14.02-37.53-20.83-38.23c-7.74-0.81-20.31,9.5-32.26,40.73
				c-0.21,0.54-0.91,2.39-0.91,2.39h-10.22c-1.84-1.84-2.54-4.66-1.55-7.24c3.92-10.2,7.91-18.37,11.87-24.89
				c13.62-22.38,26.81-25.27,34.43-24.5c15.96,1.61,27.93,19.65,32.88,49.52C516.58,226.19,514.07,229.68,510.37,230.29z"/>
		</g>
		<g>
			
				<linearGradient id="SVGID_00000183221971521769906090000017328984985044899239_" gradientUnits="userSpaceOnUse" x1="499.1119" y1="213.5122" x2="619.0759" y2="170.9691">
				<stop  offset="0" style="stop-color:#2082A6"/>
				<stop  offset="0.5" style="stop-color:#524096"/>
				<stop  offset="1" style="stop-color:#5F2A84"/>
			</linearGradient>
			<path style="fill:url(#SVGID_00000183221971521769906090000017328984985044899239_);" d="M567.97,230.8c-0.01,0-0.02,0-0.04,0
				c-2.69-0.01-5.21-1.07-7.11-2.98c-1.89-1.91-2.92-4.44-2.91-7.12l0.01-0.8c0.01-1.45,0.02-3.09-0.03-4.06
				c-1.74-31.88-11.93-44.07-17.95-44.26c-0.05,0-0.1,0-0.16,0c-6.83,0-19.18,14.23-23.79,52.82c-0.45,3.72-3.8,6.38-7.55,5.94
				c-3.72-0.45-6.38-3.82-5.94-7.55c4.78-40.07,19.01-64.79,37.21-64.79c0.22,0,0.43,0,0.65,0.01
				c12.08,0.39,21.54,11.21,26.78,29.53c2.18-11.78,6.59-25.6,15.77-40.54c1.96-3.2,6.14-4.19,9.34-2.23
				c3.2,1.96,4.19,6.14,2.23,9.34c-15.07,24.53-15.65,45.18-16.04,58.85c-0.1,3.54-0.19,6.6-0.53,9.18
				C577.27,227.07,573,230.8,567.97,230.8z"/>
		</g>
	</g>
</g>
</svg>
